<?xml version="1.0" standalone="no"?><!DOCTYPE svg PUBLIC "-//W3C//DTD SVG 1.1//EN" "http://www.w3.org/Graphics/SVG/1.1/DTD/svg11.dtd"><svg t="1567415851821" class="icon" viewBox="0 0 1024 1024" version="1.1" xmlns="http://www.w3.org/2000/svg" p-id="7570" width="28" height="28"><path d="M512 1022.4C232 1022.4 3.2 793.6 3.2 512 3.2 230.4 232 1.6 512 1.6c113.6 0 222.4 36.8 312 107.2 14.4 11.2 17.6 30.4 4.8 44.8-11.2 14.4-30.4 17.6-44.8 4.8-76.8-60.8-171.2-92.8-272-92.8C265.6 65.6 65.6 265.6 65.6 512c0 246.4 200 446.4 446.4 446.4 246.4 0 446.4-201.6 446.4-446.4 0-35.2-4.8-70.4-12.8-104-4.8-17.6 6.4-33.6 24-38.4 17.6-4.8 33.6 6.4 38.4 24 9.6 38.4 14.4 80 14.4 120 0 280-228.8 508.8-510.4 508.8z m0 0" p-id="7571" fill="#cccccc" data-spm-anchor-id="a313x.7781069.0.i9" class=""></path><path d="M472 729.6c-8 0-16-3.2-22.4-9.6L232 504c-12.8-12.8-12.8-32 0-44.8 12.8-12.8 32-12.8 44.8 0l195.2 195.2L934.4 192c12.8-12.8 32-12.8 44.8 0 12.8 12.8 12.8 32 0 44.8L494.4 721.6c-6.4 4.8-14.4 8-22.4 8z m0 0" p-id="7572" data-spm-anchor-id="a313x.7781069.0.i8" class="selected" fill="#1296db"></path></svg>